<svg width="32" height="32" viewBox="0 0 32 32" fill="none" xmlns="http://www.w3.org/2000/svg">
<path d="M27.0345 0H4.96552C2.22314 0 0 2.22314 0 4.96552V27.0345C0 29.7769 2.22314 32 4.96552 32H27.0345C29.7769 32 32 29.7769 32 27.0345V4.96552C32 2.22314 29.7769 0 27.0345 0Z" fill="white" fill-opacity="0.05"/>
<path d="M4.96552 0.5H27.0345C29.5007 0.5 31.5 2.49928 31.5 4.96552V27.0345C31.5 29.5007 29.5007 31.5 27.0345 31.5H4.96552C2.49928 31.5 0.5 29.5007 0.5 27.0345V4.96552C0.5 2.49928 2.49928 0.5 4.96552 0.5Z" stroke="white" stroke-opacity="0.05"/>
<path d="M20.7183 22.126H11.282C10.8407 22.126 10.4829 22.4837 10.4829 22.925V22.925C10.4829 23.3663 10.8407 23.7241 11.282 23.7241H20.7183C21.1596 23.7241 21.5174 23.3663 21.5174 22.925C21.5174 22.4837 21.1596 22.126 20.7183 22.126Z" fill="white" fill-opacity="0.2"/>
<path d="M20.4138 8.27539H11.5862C9.75797 8.27539 8.27588 9.75748 8.27588 11.5857V16.6844C8.27588 18.5127 9.75797 19.9948 11.5862 19.9948H20.4138C22.2421 19.9948 23.7242 18.5127 23.7242 16.6844V11.5857C23.7242 9.75748 22.2421 8.27539 20.4138 8.27539Z" fill="white" fill-opacity="0.3"/>
<path d="M10.4829 15.7337H12.1381L13.2415 13.603L14.8967 16.7992L17.1036 10.9395L19.3105 15.7337H20.9657" stroke="white" stroke-opacity="0.7" stroke-linecap="round" stroke-linejoin="round"/>
</svg>
