<svg width="24" height="24" viewBox="0 0 24 24" fill="none" xmlns="http://www.w3.org/2000/svg">
<g filter="url(#filter0_d_11453_8691)">
<path fill-rule="evenodd" clip-rule="evenodd" d="M7.3204 7.50876C8.90013 8.00563 10.9369 8.92844 13.0576 10.158C15.1783 11.3875 16.9913 12.695 18.2078 13.8174C18.8152 14.3778 19.2799 14.8976 19.5588 15.3431C19.6982 15.5658 19.7955 15.7767 19.8379 15.9699C19.8805 16.1642 19.8695 16.3512 19.777 16.5108C19.6846 16.6705 19.5279 16.7732 19.3382 16.8331C19.1495 16.8926 18.9181 16.9132 18.6557 16.9032C18.1304 16.8831 17.4483 16.7387 16.6601 16.4906C15.0813 15.9937 13.0451 15.0709 10.9232 13.8414C8.80133 12.6119 6.98783 11.3048 5.77108 10.1826C5.16361 9.62228 4.69878 9.10253 4.4198 8.65692C4.28039 8.43424 4.18305 8.22328 4.14062 8.02995C4.09796 7.83553 4.10894 7.64843 4.20131 7.4887C4.29372 7.3289 4.45054 7.22613 4.64043 7.16629C4.82927 7.10677 5.0608 7.08614 5.32346 7.09618C5.8491 7.11626 6.53171 7.26069 7.3204 7.50876ZM4.69291 7.93013L4.82001 7.90692L4.83819 7.90354L4.8362 7.88928L4.82933 7.87301L4.81821 7.83467L6.7725 10.1293L6.77375 10.1303L6.77886 10.1346L6.79936 10.1516L6.87994 10.218C6.95067 10.2759 7.05461 10.3603 7.18708 10.4658C7.45205 10.6767 7.83101 10.9718 8.28648 11.3082C9.19819 11.9815 10.4132 12.8178 11.6327 13.4756L11.6403 13.4799L11.6416 13.4807L11.6472 13.4842L11.6702 13.498C11.6881 13.5088 11.7137 13.524 11.7468 13.5435L11.7614 13.5521C11.8419 13.5992 11.9611 13.6678 12.1148 13.7531C12.4224 13.9237 12.8684 14.1609 13.4209 14.4267C14.5262 14.9585 16.055 15.6034 17.7522 16.0586L17.7541 16.0591L17.7629 16.0613L17.7975 16.0696C17.8277 16.0767 17.8715 16.0868 17.9256 16.0983C18.0338 16.1213 18.182 16.15 18.3422 16.1729C18.5031 16.1958 18.6729 16.2124 18.8254 16.2122C18.9822 16.2121 19.1035 16.1938 19.1774 16.1599L19.1816 16.1558L19.1822 16.1499C19.1454 16.0103 18.9889 15.6389 18.337 14.9507C17.6865 14.2641 16.5505 13.2701 14.5714 11.885L14.5604 11.8782L14.517 11.8512C14.4787 11.8275 14.4222 11.7927 14.3491 11.748C14.2029 11.6587 13.9907 11.5302 13.727 11.374C13.1994 11.0616 12.466 10.6381 11.6427 10.1943C9.9908 9.30376 7.99425 8.34076 6.56984 8.0164L6.55896 8.01348L6.55703 8.0129L6.54874 8.01043L6.51533 8.00081C6.48591 7.9925 6.44269 7.98068 6.38833 7.96688C6.2795 7.93925 6.12658 7.90385 5.95072 7.87283C5.59905 7.81081 5.17132 7.76929 4.82195 7.83246L4.81821 7.83467L4.81878 7.8398C4.81975 7.846 4.82222 7.85614 4.82834 7.87066L4.82933 7.87301L4.83819 7.90354L4.69291 7.93013Z" fill="white" fill-opacity="0.7"/>
<path fill-rule="evenodd" clip-rule="evenodd" d="M13.5442 5.71124C13.9038 7.32776 14.123 9.55307 14.1185 12.0044C14.1141 14.4558 13.8883 16.6796 13.5245 18.2944C13.3428 19.1005 13.125 19.7629 12.8787 20.2272C12.7555 20.4592 12.6216 20.649 12.4754 20.7823C12.3284 20.9164 12.161 21.0003 11.9765 21C11.792 20.9998 11.6247 20.9155 11.478 20.7811C11.3321 20.6475 11.1985 20.4574 11.076 20.2251C10.8308 19.7602 10.6148 19.0973 10.4355 18.2906C10.0764 16.6749 9.85754 14.4501 9.86138 11.9977C9.86521 9.54533 10.0904 7.32125 10.454 5.7064C10.6354 4.90017 10.8531 4.23774 11.0996 3.77333C11.2227 3.54126 11.3567 3.35147 11.503 3.21807C11.65 3.08392 11.8175 2.99987 12.002 3C12.1866 3.00013 12.354 3.08456 12.5008 3.21908C12.6468 3.35286 12.7804 3.54306 12.903 3.77555C13.1485 4.24081 13.3647 4.90418 13.5442 5.71124ZM11.8655 3.64646L11.9492 3.74491L11.9612 3.75897L11.9726 3.75012L11.9832 3.73604L12.0109 3.70724L11.0008 6.54699L11.0006 6.54859L10.9994 6.55516L10.9949 6.58144L10.9777 6.68442C10.9629 6.77463 10.9418 6.90684 10.9167 7.07428C10.8665 7.40921 10.8004 7.88496 10.7368 8.4476C10.6096 9.57384 10.4928 11.0443 10.533 12.4292L10.533 12.4379L10.5329 12.4395L10.5328 12.4461L10.5322 12.4729C10.5319 12.4937 10.5315 12.5236 10.5312 12.562L10.531 12.5789C10.5304 12.6722 10.5306 12.8097 10.5336 12.9855C10.5397 13.3372 10.5573 13.8421 10.6033 14.4534C10.6954 15.6765 10.9013 17.323 11.3557 19.0204L11.3562 19.0223L11.3587 19.0309L11.3688 19.0651C11.3778 19.0948 11.391 19.1378 11.408 19.1904C11.4422 19.2956 11.4914 19.4383 11.5517 19.5885C11.6123 19.7393 11.6829 19.8946 11.7593 20.0266C11.8378 20.1623 11.9143 20.2582 11.9805 20.3053L11.9862 20.3069L11.9917 20.3044C12.0942 20.2028 12.3376 19.8816 12.6076 18.9729C12.877 18.0662 13.1698 16.5854 13.3797 14.1789L13.3802 14.166L13.3818 14.1149C13.3832 14.0699 13.3851 14.0035 13.3872 13.9179C13.3915 13.7466 13.3966 13.4986 13.4001 13.1921C13.4069 12.579 13.4069 11.7322 13.3796 10.7972C13.3249 8.92138 13.1606 6.71081 12.7293 5.31505L12.7264 5.30418L12.7259 5.30221L12.7239 5.2938L12.7155 5.26006C12.708 5.23043 12.6967 5.18709 12.6814 5.13311C12.6509 5.02504 12.6051 4.8749 12.5441 4.70709C12.4219 4.37153 12.244 3.98035 12.0146 3.70937L12.0109 3.70724L12.0067 3.71029C12.0018 3.71423 11.9943 3.72144 11.9848 3.73401L11.9832 3.73604L11.9612 3.75897L11.8655 3.64646Z" fill="white" fill-opacity="0.7"/>
<path fill-rule="evenodd" clip-rule="evenodd" d="M5.72141 13.6365C6.96999 12.5487 8.82048 11.2934 10.9764 10.1266C13.1323 8.95991 15.194 8.09634 16.7865 7.64487C17.5815 7.41947 18.2675 7.29449 18.7931 7.28924C19.0557 7.28661 19.2864 7.31372 19.4733 7.37846C19.6613 7.44357 19.8151 7.55062 19.9029 7.71284C19.9908 7.87502 19.9966 8.06229 19.9486 8.25535C19.9009 8.44739 19.7977 8.65548 19.6521 8.87409C19.3607 9.31157 18.8814 9.81788 18.2582 10.3606C17.0101 11.4477 15.16 12.7025 13.0035 13.8702C10.847 15.038 8.7853 15.9022 7.19289 16.354C6.39786 16.5795 5.71188 16.7046 5.18617 16.7098C4.92347 16.7125 4.69272 16.6854 4.50568 16.6206C4.3176 16.5555 4.16376 16.4484 4.07575 16.2862C3.98771 16.124 3.98195 15.9366 4.03005 15.7434C4.07789 15.5513 4.18118 15.343 4.32688 15.1242C4.61846 14.6864 5.09805 14.1797 5.72141 13.6365ZM4.70892 16.0974L4.75547 15.9769L4.76209 15.9597L4.74889 15.9539L4.73143 15.9513L4.69292 15.9407L7.67028 15.472L7.67182 15.4715L7.67813 15.4694L7.70338 15.4608L7.80207 15.4267C7.88841 15.3967 8.01464 15.3521 8.17374 15.2941C8.49197 15.1783 8.94153 15.0092 9.46624 14.7964C10.5165 14.3704 11.8642 13.7707 13.0619 13.0741L13.0695 13.0699L13.0709 13.0692L13.0768 13.0662L13.1006 13.0539C13.1191 13.0442 13.1455 13.0303 13.1794 13.0123L13.1943 13.0043C13.2766 12.9602 13.3973 12.8944 13.5503 12.8078C13.8564 12.6346 14.2916 12.378 14.8068 12.0456C15.8374 11.3806 17.1857 10.4135 18.46 9.20361L18.4614 9.20226L18.4678 9.19592L18.493 9.17077C18.5149 9.14873 18.5463 9.11656 18.5844 9.07648C18.6606 8.9962 18.7624 8.88484 18.8656 8.76009C18.9691 8.6349 19.0719 8.49869 19.1514 8.36852C19.2331 8.23477 19.2808 8.12175 19.2905 8.04106L19.2892 8.03528L19.2845 8.03169C19.1462 7.99015 18.7478 7.92971 17.8205 8.1264C16.8952 8.32265 15.4543 8.7726 13.2397 9.73733L13.2281 9.74312L13.1825 9.76607C13.1423 9.78633 13.083 9.81637 13.0068 9.85539C12.8543 9.93342 12.6339 10.0473 12.363 10.1907C11.8211 10.4775 11.077 10.8819 10.2686 11.3524C8.6466 12.2962 6.78283 13.4962 5.76248 14.5417L5.75431 14.5495L5.7528 14.5508L5.74637 14.5566L5.72072 14.5801C5.69828 14.6008 5.66563 14.6315 5.62547 14.6707C5.54509 14.7491 5.43505 14.861 5.31677 14.9948C5.08026 15.2623 4.82153 15.6054 4.69299 15.9364L4.69292 15.9407L4.69759 15.9429C4.70339 15.9453 4.71332 15.9485 4.72891 15.9509L4.73143 15.9513L4.76209 15.9597L4.70892 16.0974Z" fill="white" fill-opacity="0.7"/>
<path d="M11.9683 13.0206C12.5436 13.0206 13.0099 12.5543 13.0099 11.9791C13.0099 11.4038 12.5436 10.9375 11.9683 10.9375C11.3931 10.9375 10.9268 11.4038 10.9268 11.9791C10.9268 12.5543 11.3931 13.0206 11.9683 13.0206Z" fill="white" fill-opacity="0.7"/>
<path d="M16.348 8.83104C16.7419 8.83104 17.0612 8.50072 17.0612 8.09325C17.0612 7.68579 16.7419 7.35547 16.348 7.35547C15.9541 7.35547 15.6348 7.68579 15.6348 8.09325C15.6348 8.50072 15.9541 8.83104 16.348 8.83104Z" fill="white" fill-opacity="0.7"/>
<path d="M6.43196 11.1142C6.82586 11.1142 7.14517 10.7839 7.14517 10.3765C7.14517 9.96899 6.82586 9.63867 6.43196 9.63867C6.03806 9.63867 5.71875 9.96899 5.71875 10.3765C5.71875 10.7839 6.03806 11.1142 6.43196 11.1142Z" fill="white" fill-opacity="0.7"/>
<path d="M10.7137 18.6221C11.1076 18.6221 11.4269 18.2917 11.4269 17.8843C11.4269 17.4768 11.1076 17.1465 10.7137 17.1465C10.3198 17.1465 10.0005 17.4768 10.0005 17.8843C10.0005 18.2917 10.3198 18.6221 10.7137 18.6221Z" fill="white" fill-opacity="0.7"/>
</g>
<defs>
<filter id="filter0_d_11453_8691" x="3" y="2" width="19.9785" height="22" filterUnits="userSpaceOnUse" color-interpolation-filters="sRGB">
<feFlood flood-opacity="0" result="BackgroundImageFix"/>
<feColorMatrix in="SourceAlpha" type="matrix" values="0 0 0 0 0 0 0 0 0 0 0 0 0 0 0 0 0 0 127 0" result="hardAlpha"/>
<feOffset dx="1" dy="1"/>
<feGaussianBlur stdDeviation="1"/>
<feComposite in2="hardAlpha" operator="out"/>
<feColorMatrix type="matrix" values="0 0 0 0 0 0 0 0 0 0 0 0 0 0 0 0 0 0 0.3 0"/>
<feBlend mode="normal" in2="BackgroundImageFix" result="effect1_dropShadow_11453_8691"/>
<feBlend mode="normal" in="SourceGraphic" in2="effect1_dropShadow_11453_8691" result="shape"/>
</filter>
</defs>
</svg>
