<svg width="32" height="32" viewBox="0 0 32 32" fill="none" xmlns="http://www.w3.org/2000/svg">
<path d="M27.0345 0H4.96552C2.22314 0 0 2.22314 0 4.96552V27.0345C0 29.7769 2.22314 32 4.96552 32H27.0345C29.7769 32 32 29.7769 32 27.0345V4.96552C32 2.22314 29.7769 0 27.0345 0Z" fill="white" fill-opacity="0.05"/>
<path d="M4.96552 0.5H27.0345C29.5007 0.5 31.5 2.49928 31.5 4.96552V27.0345C31.5 29.5007 29.5007 31.5 27.0345 31.5H4.96552C2.49928 31.5 0.5 29.5007 0.5 27.0345V4.96552C0.5 2.49928 2.49928 0.5 4.96552 0.5Z" stroke="white" stroke-opacity="0.05"/>
<path d="M12.5206 17.3683L10.5079 20.9637C10.481 21.0163 10.4681 21.075 10.4705 21.134C10.4729 21.193 10.4904 21.2504 10.5215 21.3007C10.5525 21.351 10.596 21.3925 10.6477 21.4211C10.6995 21.4497 10.7577 21.4645 10.8169 21.4641H21.9559C22.3232 21.4641 22.6211 21.1654 22.6211 20.7994V11.8416C22.6211 11.544 22.2316 11.4294 22.0717 11.6819L19.3065 16.008L17.4197 15.0469C17.3411 15.0067 17.2505 14.9964 17.1649 15.0178C17.0792 15.0393 17.0042 15.0912 16.954 15.1638L14.9095 18.1056L12.9928 17.2139C12.9091 17.1756 12.814 17.1703 12.7265 17.1989C12.639 17.2275 12.5655 17.2879 12.5206 17.3683Z" fill="white" fill-opacity="0.7"/>
<path d="M23.1035 23.7237H8.896C8.81447 23.7237 8.73374 23.7076 8.65843 23.6764C8.58312 23.6452 8.51471 23.5995 8.45712 23.5418C8.39952 23.4842 8.35386 23.4158 8.32277 23.3405C8.29167 23.2652 8.27574 23.1845 8.27588 23.1031V8.8954C8.27588 8.73096 8.34127 8.57326 8.45767 8.45698C8.57406 8.34071 8.73194 8.27539 8.89655 8.27539C9.06116 8.27539 9.21903 8.34071 9.33542 8.45698C9.45182 8.57326 9.51721 8.73096 9.51721 8.8954V22.4825H23.1035C23.2681 22.4825 23.426 22.5478 23.5424 22.6641C23.6587 22.7804 23.7242 22.9381 23.7242 23.1025C23.7242 23.2669 23.6587 23.4247 23.5424 23.5409C23.426 23.6572 23.2681 23.7237 23.1035 23.7237Z" fill="white" fill-opacity="0.3"/>
</svg>
