<svg width="24" height="24" viewBox="0 0 24 24" fill="none" xmlns="http://www.w3.org/2000/svg">
<circle cx="12" cy="12" r="12" fill="white" fill-opacity="0.1"/>
<path fill-rule="evenodd" clip-rule="evenodd" d="M7.52866 7.52768C7.78901 7.26733 8.21112 7.26733 8.47147 7.52768L12.0001 11.0563L15.5287 7.52768C15.789 7.26733 16.2111 7.26733 16.4715 7.52768C16.7318 7.78803 16.7318 8.21014 16.4715 8.47049L12.9429 11.9991L16.4715 15.5277C16.7318 15.788 16.7318 16.2101 16.4715 16.4705C16.2111 16.7308 15.789 16.7308 15.5287 16.4705L12.0001 12.9419L8.47147 16.4705C8.21112 16.7308 7.78901 16.7308 7.52866 16.4705C7.26831 16.2101 7.26831 15.788 7.52866 15.5277L11.0573 11.9991L7.52866 8.47049C7.26831 8.21014 7.26831 7.78803 7.52866 7.52768Z" fill="white"/>
<path fill-rule="evenodd" clip-rule="evenodd" d="M15.458 7.45697C15.7574 7.15757 16.2428 7.15757 16.5422 7.45697C16.8416 7.75638 16.8416 8.2418 16.5422 8.5412L13.0843 11.9991L16.5422 15.457C16.8416 15.7564 16.8416 16.2418 16.5422 16.5412C16.2428 16.8406 15.7574 16.8406 15.458 16.5412L12.0001 13.0833L8.54218 16.5412C8.24278 16.8406 7.75735 16.8406 7.45795 16.5412C7.15855 16.2418 7.15855 15.7564 7.45795 15.457L10.9158 11.9991L7.45795 8.5412C7.15855 8.2418 7.15855 7.75638 7.45795 7.45697C7.75735 7.15757 8.24278 7.15757 8.54218 7.45697L12.0001 10.9149L15.458 7.45697ZM16.4008 7.59839C16.1795 7.3771 15.8207 7.3771 15.5994 7.59839L12.0708 11.127C12.052 11.1457 12.0266 11.1563 12.0001 11.1563C11.9735 11.1563 11.9481 11.1457 11.9294 11.127L8.40076 7.59839C8.17946 7.3771 7.82067 7.3771 7.59937 7.59839C7.37807 7.81969 7.37807 8.17849 7.59937 8.39978L11.128 11.9284C11.1467 11.9471 11.1573 11.9726 11.1573 11.9991C11.1573 12.0256 11.1467 12.051 11.128 12.0698L7.59937 15.5984C7.37807 15.8197 7.37807 16.1785 7.59937 16.3998C7.82067 16.6211 8.17946 16.6211 8.40076 16.3998L11.9294 12.8712C11.9481 12.8524 11.9735 12.8419 12.0001 12.8419C12.0266 12.8419 12.052 12.8524 12.0708 12.8712L15.5994 16.3998C15.8207 16.6211 16.1795 16.6211 16.4008 16.3998C16.6221 16.1785 16.6221 15.8197 16.4008 15.5984L12.8722 12.0698C12.8534 12.051 12.8429 12.0256 12.8429 11.9991C12.8429 11.9726 12.8534 11.9471 12.8722 11.9284L16.4008 8.39978C16.6221 8.17849 16.6221 7.81969 16.4008 7.59839Z" fill="white"/>
</svg>
