<svg width="32" height="32" viewBox="0 0 32 32" fill="none" xmlns="http://www.w3.org/2000/svg">
<path d="M27.0345 0H4.96552C2.22314 0 0 2.22314 0 4.96552V27.0345C0 29.7769 2.22314 32 4.96552 32H27.0345C29.7769 32 32 29.7769 32 27.0345V4.96552C32 2.22314 29.7769 0 27.0345 0Z" fill="white" fill-opacity="0.05"/>
<path d="M4.96552 0.5H27.0345C29.5007 0.5 31.5 2.49928 31.5 4.96552V27.0345C31.5 29.5007 29.5007 31.5 27.0345 31.5H4.96552C2.49928 31.5 0.5 29.5007 0.5 27.0345V4.96552C0.5 2.49928 2.49928 0.5 4.96552 0.5Z" stroke="white" stroke-opacity="0.05"/>
<path d="M22.6159 13.0131C22.6159 12.9784 22.6159 12.9437 22.6159 12.9081C22.3934 13.0395 22.1902 13.177 21.9726 13.2849C21.8228 13.3593 21.6708 13.4266 21.5171 13.4885C21.0911 13.6602 20.6517 13.7876 20.205 13.8892C19.8919 13.9605 19.5752 14.0194 19.2571 14.0718C18.855 14.1381 18.4487 14.1835 18.0427 14.2203C17.8723 14.2358 17.7019 14.2513 17.5312 14.265C17.4569 14.271 17.3827 14.2763 17.3086 14.2813C17.2394 14.286 17.1702 14.2901 17.101 14.2936C16.9597 14.3009 16.8184 14.306 16.6772 14.3069C15.9614 14.3116 15.2443 14.3045 14.53 14.2634C13.9213 14.2283 13.3137 14.1538 12.7096 14.0681C12.0941 13.9808 11.488 13.8382 10.8968 13.6419C10.4151 13.4819 9.94761 13.2893 9.52887 12.995C9.48621 12.9649 9.44441 12.9337 9.38914 12.8936C9.38914 12.8936 9.38914 12.8936 9.38914 12.8937C9.38666 12.939 9.38376 12.9676 9.38376 12.9962C9.38352 13.8737 9.38481 14.7513 9.38233 15.6289C9.3819 15.7717 9.42009 15.8989 9.49396 16.0177C9.63693 16.2479 9.84868 16.4024 10.0765 16.536C10.6452 16.8697 11.2678 17.0637 11.9062 17.2009C11.9874 17.2183 12.069 17.2343 12.1504 17.2507C12.4198 17.3049 12.6903 17.3536 12.9618 17.3961C13.1224 17.4211 13.2832 17.4448 13.4443 17.4656C13.967 17.533 14.4939 17.578 15.0205 17.6037C15.6624 17.6352 16.305 17.6411 16.9465 17.609C17.1604 17.5983 17.374 17.5834 17.5876 17.5638C18.1329 17.5137 18.6773 17.4484 19.2196 17.3729C19.8334 17.2875 20.4351 17.1428 21.0214 16.9403C21.0948 16.915 21.1679 16.8886 21.2405 16.8613C21.3464 16.8213 21.451 16.7787 21.5537 16.7321C21.7996 16.6207 22.034 16.4864 22.2461 16.3099C22.4863 16.1101 22.6254 15.8702 22.6203 15.5382C22.6071 14.6967 22.6159 13.8548 22.6159 13.0131Z" fill="white" fill-opacity="0.5"/>
<path d="M22.6162 17.3239C22.6162 17.2955 22.6135 17.267 22.6114 17.2275C22.5875 17.2432 22.5738 17.2528 22.5596 17.2613C22.327 17.3999 22.1033 17.5571 21.8599 17.6732C21.1731 18.0006 20.4401 18.1817 19.6962 18.3264C19.0726 18.4475 18.444 18.5337 17.8115 18.5782C17.2048 18.6209 16.5955 18.6528 15.9877 18.6493C15.344 18.6458 14.7002 18.6035 14.0575 18.5617C13.6805 18.5372 13.3033 18.495 12.9303 18.435C12.4902 18.3643 12.052 18.277 11.6177 18.1766C11.06 18.0477 10.5157 17.8722 10.0055 17.6076C9.79531 17.4985 9.59651 17.3677 9.38748 17.2438C9.38643 17.2547 9.38428 17.2663 9.38428 17.278C9.38428 18.1913 9.38423 19.1046 9.38524 20.018C9.38528 20.0562 9.39233 20.0952 9.40151 20.1324C9.4616 20.375 9.62575 20.5433 9.81412 20.6892C10.1966 20.9854 10.6395 21.1616 11.0938 21.3101C11.7685 21.5308 12.4605 21.6786 13.1647 21.7632C13.7029 21.8277 14.2423 21.8936 14.7831 21.9218C15.3965 21.9537 16.0128 21.9667 16.6266 21.9467C17.2755 21.9255 17.9245 21.8722 18.5702 21.8018C19.0275 21.7518 19.4811 21.6593 19.9331 21.5694C20.5062 21.4554 21.065 21.2889 21.5963 21.0418C21.9031 20.8992 22.195 20.7311 22.4192 20.4688C22.547 20.3194 22.6188 20.1507 22.6181 19.9475C22.6142 19.0731 22.6164 18.1985 22.6162 17.3239Z" fill="white" fill-opacity="0.3"/>
<path d="M13.2897 9.54953C12.8129 9.61546 12.3387 9.7073 11.8678 9.80808C11.3727 9.91406 10.8896 10.0655 10.4285 10.2791C10.1101 10.4267 9.80578 10.596 9.57251 10.8677C9.32943 11.1507 9.31477 11.467 9.53452 11.7667C9.66911 11.9501 9.84792 12.0846 10.0409 12.2005C10.5544 12.5093 11.1182 12.6887 11.6933 12.8365C12.5176 13.048 13.3573 13.1699 14.2042 13.2353C14.2181 13.2365 14.2323 13.2373 14.2463 13.2384C14.7526 13.2764 15.2586 13.2934 15.6896 13.3125C15.7528 13.3152 15.8145 13.3181 15.8743 13.3211C16.3185 13.307 16.6697 13.3012 17.0097 13.2856C17.0528 13.2836 17.0956 13.2815 17.1383 13.2792C17.1799 13.2768 17.2214 13.2746 17.263 13.2723C17.584 13.2548 17.9054 13.2352 18.2239 13.1956C18.2424 13.1933 18.2609 13.1912 18.2795 13.1888C18.8131 13.1183 19.345 13.0302 19.8742 12.9313C19.9139 12.924 19.9533 12.9156 19.9929 12.9076C20.4305 12.8192 20.8586 12.6954 21.2731 12.5297C21.3662 12.4926 21.4586 12.4541 21.5502 12.4126C21.8532 12.2756 22.1416 12.1142 22.3745 11.8704C22.6953 11.5345 22.6938 11.1503 22.3749 10.8143C22.2147 10.6456 22.0265 10.5149 21.8229 10.407C21.0311 9.98723 20.171 9.78642 19.2973 9.63941C18.8485 9.56391 18.3951 9.50773 17.9416 9.46955C17.3948 9.42352 16.8461 9.38882 16.2978 9.38067C15.8222 9.37358 15.3456 9.38863 14.8702 9.41219C14.8062 9.41537 14.7422 9.41813 14.6782 9.42161C14.2143 9.4468 13.7497 9.48588 13.2897 9.54953Z" fill="white" fill-opacity="0.7"/>
</svg>
