<svg width="32" height="32" viewBox="0 0 32 32" fill="none" xmlns="http://www.w3.org/2000/svg">
<path d="M27.0345 0H4.96552C2.22314 0 0 2.22314 0 4.96552V27.0345C0 29.7769 2.22314 32 4.96552 32H27.0345C29.7769 32 32 29.7769 32 27.0345V4.96552C32 2.22314 29.7769 0 27.0345 0Z" fill="white" fill-opacity="0.05"/>
<path d="M4.96552 0.5H27.0345C29.5007 0.5 31.5 2.49928 31.5 4.96552V27.0345C31.5 29.5007 29.5007 31.5 27.0345 31.5H4.96552C2.49928 31.5 0.5 29.5007 0.5 27.0345V4.96552C0.5 2.49928 2.49928 0.5 4.96552 0.5Z" stroke="white" stroke-opacity="0.05"/>
<path d="M13.793 14.6204H16.3677C16.3677 14.2789 16.232 13.9515 15.9906 13.7101C15.7492 13.4686 15.4218 13.333 15.0803 13.333C14.7389 13.333 14.4115 13.4686 14.17 13.7101C13.9286 13.9515 13.793 14.2789 13.793 14.6204Z" fill="white" fill-opacity="0.7"/>
<path d="M15.0806 12.0455C15.3749 12.0485 15.6665 12.1023 15.9425 12.2045L17.2002 10.9468C17.2596 10.8853 17.3306 10.8363 17.4091 10.8025C17.4877 10.7688 17.5721 10.751 17.6576 10.7503C17.7431 10.7496 17.8278 10.7658 17.9069 10.7982C17.986 10.8306 18.0579 10.8784 18.1183 10.9388C18.1788 10.9992 18.2266 11.0711 18.2589 11.1502C18.2913 11.2293 18.3076 11.3141 18.3069 11.3995C18.3061 11.485 18.2884 11.5695 18.2546 11.648C18.2209 11.7265 18.1718 11.7976 18.1104 11.8569L17.0206 12.9467C17.4274 13.4096 17.6528 14.0041 17.6553 14.6203H20.23V12.0455C20.229 11.1923 19.8896 10.3743 19.2862 9.77092C18.6829 9.16758 17.8649 8.82817 17.0116 8.82715H13.1495C12.2963 8.82817 11.4783 9.16758 10.8749 9.77092C10.2716 10.3743 9.93217 11.1923 9.93115 12.0455L9.93115 14.6203H12.5059C12.5059 13.9374 12.7771 13.2825 13.26 12.7997C13.7428 12.3168 14.3977 12.0455 15.0806 12.0455Z" fill="white" fill-opacity="0.5"/>
<path d="M25.1741 10.9306C25.0534 10.81 24.8897 10.7422 24.719 10.7422C24.5483 10.7422 24.3846 10.81 24.2639 10.9306L22.3496 12.8443C22.2289 12.965 22.1611 13.1287 22.161 13.2994V20.414C22.161 20.5847 22.0932 20.7484 21.9725 20.8691C21.8518 20.9898 21.6881 21.0576 21.5174 21.0576H20.23V15.9082H9.93115V21.0576C9.93217 21.9109 10.2716 22.7289 10.8749 23.3323C11.4783 23.9356 12.2963 24.275 13.1495 24.276H17.0116C17.6371 24.2752 18.2488 24.0921 18.7719 23.7492C19.295 23.4062 19.7069 22.9183 19.9571 22.345H21.5174C22.0295 22.345 22.5207 22.1415 22.8828 21.7794C23.2449 21.4173 23.4484 20.9261 23.4484 20.414V13.5659L25.1741 11.8408C25.2948 11.7201 25.3626 11.5564 25.3626 11.3857C25.3626 11.215 25.2948 11.0514 25.1741 10.9306Z" fill="white" fill-opacity="0.3"/>
</svg>
