<svg width="22" height="17" viewBox="0 0 22 17" fill="none" xmlns="http://www.w3.org/2000/svg">
<path d="M3.98526 16.6C3.23081 16.6 2.61826 15.235 2.61826 15.235C2.61826 15.235 1.9458 13.87 2.70024 13.87L19.3002 13.87C20.0547 13.87 19.3002 15.235 19.3002 15.235C19.3002 15.235 18.6876 16.6 17.9332 16.6H3.98526Z" fill="white"/>
<path d="M2.06719 9.66501C1.31275 9.66501 0.700195 9.0544 0.700195 8.3C0.700195 7.5456 1.31275 6.93498 2.06719 6.93498L19.9332 6.93498C20.6876 6.93498 21.3002 7.54559 21.3002 8.3C21.3002 9.0544 20.6876 9.66501 19.9332 9.66501L2.06719 9.66501Z" fill="white"/>
<path d="M5.00024 2.73003C4.2458 2.73003 4.59327 1.90024 4.7002 1.36502C4.84799 0.62521 5.31275 0 6.06719 0H16.015C16.7695 0 17.2566 0.621094 17.382 1.36502C17.4741 1.91084 17.7547 2.73003 17.0002 2.73003L5.00024 2.73003Z" fill="white"/>
</svg>
