<svg width="32" height="32" viewBox="0 0 32 32" fill="none" xmlns="http://www.w3.org/2000/svg">
<path d="M27.0345 0H4.96552C2.22314 0 0 2.22314 0 4.96552V27.0345C0 29.7769 2.22314 32 4.96552 32H27.0345C29.7769 32 32 29.7769 32 27.0345V4.96552C32 2.22314 29.7769 0 27.0345 0Z" fill="white" fill-opacity="0.05"/>
<path d="M4.96552 0.5H27.0345C29.5007 0.5 31.5 2.49928 31.5 4.96552V27.0345C31.5 29.5007 29.5007 31.5 27.0345 31.5H4.96552C2.49928 31.5 0.5 29.5007 0.5 27.0345V4.96552C0.5 2.49928 2.49928 0.5 4.96552 0.5Z" stroke="white" stroke-opacity="0.05"/>
<path d="M14.6207 23.1721H9.47131C9.3006 23.1721 9.13688 23.1043 9.01617 22.9836C8.89545 22.8629 8.82764 22.6992 8.82764 22.5284C8.82764 22.3577 8.89545 22.194 9.01617 22.0733C9.13688 21.9526 9.3006 21.8848 9.47131 21.8848H14.6207C14.7915 21.8848 14.9552 21.9526 15.0759 22.0733C15.1966 22.194 15.2644 22.3577 15.2644 22.5284C15.2644 22.6992 15.1966 22.8629 15.0759 22.9836C14.9552 23.1043 14.7915 23.1721 14.6207 23.1721Z" fill="white" fill-opacity="0.2"/>
<path d="M13.3334 20.5979H9.47131C9.3006 20.5979 9.13688 20.5301 9.01617 20.4094C8.89545 20.2887 8.82764 20.1249 8.82764 19.9542C8.82764 19.7835 8.89545 19.6198 9.01617 19.4991C9.13688 19.3784 9.3006 19.3105 9.47131 19.3105H13.3334C13.5041 19.3105 13.6678 19.3784 13.7885 19.4991C13.9092 19.6198 13.9771 19.7835 13.9771 19.9542C13.9771 20.1249 13.9092 20.2887 13.7885 20.4094C13.6678 20.5301 13.5041 20.5979 13.3334 20.5979Z" fill="white" fill-opacity="0.3"/>
<path d="M12.046 18.0237H9.47131C9.3006 18.0237 9.13688 17.9559 9.01617 17.8352C8.89545 17.7144 8.82764 17.5507 8.82764 17.38C8.82764 17.2093 8.89545 17.0456 9.01617 16.9249C9.13688 16.8041 9.3006 16.7363 9.47131 16.7363H12.046C12.2167 16.7363 12.3805 16.8041 12.5012 16.9249C12.6219 17.0456 12.6897 17.2093 12.6897 17.38C12.6897 17.5507 12.6219 17.7144 12.5012 17.8352C12.3805 17.9559 12.2167 18.0237 12.046 18.0237Z" fill="white" fill-opacity="0.7"/>
<path d="M17.1953 23.1434C17.0246 23.1509 16.8579 23.0904 16.7318 22.9751C16.6057 22.8597 16.5306 22.699 16.523 22.5283C16.5154 22.3576 16.5759 22.1909 16.6913 22.0648C16.8066 21.9387 16.9673 21.8636 17.138 21.856C18.3562 21.7445 19.5173 21.2883 20.4855 20.5407C21.4537 19.7931 22.1888 18.7851 22.6048 17.6348C23.0207 16.4844 23.1003 15.2394 22.8341 14.0455C22.568 12.8516 21.9671 11.7582 21.102 10.8935C20.2368 10.0287 19.1432 9.42837 17.9492 9.16277C16.7551 8.89717 15.5101 8.97731 14.36 9.39378C13.2098 9.81026 12.2022 10.5458 11.455 11.5144C10.7079 12.4829 10.2522 13.6442 10.1413 14.8624C10.1259 15.0325 10.0436 15.1894 9.91253 15.2988C9.78143 15.4082 9.61226 15.461 9.44223 15.4456C9.2722 15.4302 9.11524 15.348 9.00587 15.2169C8.8965 15.0858 8.84369 14.9166 8.85906 14.7466C9.03857 12.7662 9.97494 10.9313 11.4732 9.6239C12.9716 8.3165 14.9164 7.63732 16.9028 7.72772C18.8893 7.81812 20.7643 8.67115 22.1377 10.1092C23.5111 11.5473 24.2769 13.4597 24.2758 15.4482C24.2857 17.3781 23.5687 19.2411 22.2675 20.6665C20.9662 22.0919 19.1761 22.9752 17.2533 23.1408C17.234 23.1427 17.214 23.1434 17.1953 23.1434V23.1434Z" fill="white" fill-opacity="0.5"/>
<path d="M16.5514 11.5859C16.3807 11.5859 16.217 11.6538 16.0962 11.7745C15.9755 11.8952 15.9077 12.0589 15.9077 12.2296V15.448C15.9078 15.6187 15.9756 15.7824 16.0963 15.9031L18.0273 17.8341C18.1487 17.9514 18.3113 18.0163 18.4801 18.0148C18.6489 18.0133 18.8103 17.9456 18.9297 17.8263C19.049 17.7069 19.1167 17.5455 19.1182 17.3767C19.1196 17.208 19.0548 17.0454 18.9375 16.924L17.1951 15.1815V12.2296C17.1951 12.0589 17.1273 11.8952 17.0065 11.7745C16.8858 11.6538 16.7221 11.5859 16.5514 11.5859V11.5859Z" fill="white" fill-opacity="0.7"/>
</svg>
