<svg width="32" height="32" viewBox="0 0 32 32" fill="none" xmlns="http://www.w3.org/2000/svg">
<path d="M27.0345 0H4.96552C2.22314 0 0 2.22314 0 4.96552V27.0345C0 29.7769 2.22314 32 4.96552 32H27.0345C29.7769 32 32 29.7769 32 27.0345V4.96552C32 2.22314 29.7769 0 27.0345 0Z" fill="white" fill-opacity="0.05"/>
<path d="M4.96552 0.5H27.0345C29.5007 0.5 31.5 2.49928 31.5 4.96552V27.0345C31.5 29.5007 29.5007 31.5 27.0345 31.5H4.96552C2.49928 31.5 0.5 29.5007 0.5 27.0345V4.96552C0.5 2.49928 2.49928 0.5 4.96552 0.5Z" stroke="white" stroke-opacity="0.05"/>
<path d="M8.82764 11.6963H22.2759C23.3805 11.6963 24.2759 12.5917 24.2759 13.6963V20.7308C24.2759 21.8353 23.3805 22.7308 22.2759 22.7308H10.8276C9.72307 22.7308 8.82764 21.8353 8.82764 20.7308V11.6963Z" fill="white" fill-opacity="0.3"/>
<circle cx="20.9658" cy="17.2138" r="1.10345" fill="white"/>
<path fill-rule="evenodd" clip-rule="evenodd" d="M11.6966 10.1523C10.8434 10.1523 10.1518 10.8439 10.1518 11.6971H8.82764C8.82764 10.1126 10.1121 8.82812 11.6966 8.82812H20.5242C21.4993 8.82812 22.2897 9.61857 22.2897 10.5936V11.6971H20.9656V10.5936C20.9656 10.3499 20.768 10.1523 20.5242 10.1523H11.6966Z" fill="white" fill-opacity="0.5"/>
</svg>
